<svg width="11" height="14" viewBox="0 0 11 14" fill="none" xmlns="http://www.w3.org/2000/svg">
<path d="M5.27046 13.1399C5.38346 13.1399 5.54668 13.0959 5.70991 13.0143C9.30715 11.1624 10.4999 10.1893 10.4999 7.93551V3.27103C10.4999 2.53024 10.2112 2.26029 9.58965 2.00289C8.89908 1.71411 6.60137 0.904262 5.92964 0.678258C5.72247 0.615479 5.49018 0.571533 5.27046 0.571533C5.05701 0.571533 4.82473 0.615479 4.61755 0.678258C3.93954 0.891706 1.64183 1.72039 0.957537 2.00289C0.336025 2.25401 0.0472412 2.53024 0.0472412 3.27103V7.93551C0.0472412 10.1893 1.29027 11.0745 4.83728 13.0143C5.00051 13.1022 5.16373 13.1399 5.27046 13.1399ZM4.57361 9.67449C4.33505 9.67449 4.14043 9.57404 3.96465 9.34804L2.42657 7.4835C2.31356 7.33911 2.25706 7.18844 2.25706 7.03149C2.25706 6.70504 2.51446 6.44137 2.83463 6.44137C3.03552 6.44137 3.18619 6.51671 3.34942 6.7176L4.55478 8.24313L7.14127 4.10599C7.27938 3.88627 7.45517 3.77326 7.65606 3.77326C7.96995 3.77326 8.26502 3.99299 8.26502 4.32572C8.26502 4.47011 8.18968 4.62706 8.10179 4.77145L5.15745 9.34176C5.01306 9.56149 4.81217 9.67449 4.57361 9.67449Z" fill="#BFBFBF"/>
</svg>
